<?xml version="1.0" encoding="utf-8"?>
<!-- Generator: Adobe Illustrator 26.5.0, SVG Export Plug-In . SVG Version: 6.00 Build 0)  -->
<svg version="1.1" id="Capa_1" xmlns="http://www.w3.org/2000/svg" xmlns:xlink="http://www.w3.org/1999/xlink" x="0px" y="0px"
	 viewBox="0 0 138.9 169.4" style="enable-background:new 0 0 138.9 169.4;" xml:space="preserve">
<style type="text/css">
	.st0{enable-background:new    ;}
	.st1{fill:#1D1D1B;}
	.st2{fill:#5FBFBD;}
</style>
<g>
	<g class="st0">
		<path class="st1" d="M41.6,145.8c-0.9,0-1.8-0.1-2.6-0.3s-1.6-0.4-2.3-0.8c-0.7-0.4-1.4-0.8-2-1.3l1.7-2.1
			c0.7,0.6,1.5,1.1,2.4,1.4c0.9,0.3,1.8,0.5,2.9,0.5c1.4,0,2.5-0.3,3.2-0.8c0.8-0.5,1.1-1.2,1.1-2.2l0,0c0-0.7-0.2-1.3-0.6-1.7
			c-0.4-0.4-0.9-0.7-1.5-0.9s-1.3-0.3-2.1-0.5c-0.7-0.1-1.4-0.3-2.2-0.4c-0.7-0.2-1.4-0.4-2-0.8c-0.6-0.4-1.1-0.9-1.5-1.5
			c-0.4-0.7-0.6-1.6-0.6-2.7l0,0c0-1.8,0.6-3.2,1.8-4.1s2.9-1.5,5-1.5c1,0,2,0.2,3,0.5s1.9,0.8,2.9,1.5l-1.5,2.1
			c-0.7-0.5-1.5-1-2.2-1.2c-0.7-0.3-1.5-0.4-2.2-0.4c-1.3,0-2.3,0.3-3.1,0.8c-0.7,0.5-1.1,1.3-1.1,2.2l0,0c0,0.7,0.2,1.3,0.6,1.6
			s1,0.7,1.7,0.8c0.7,0.2,1.4,0.3,2.2,0.5c0.7,0.1,1.4,0.3,2.1,0.5c0.7,0.2,1.3,0.5,1.9,0.9c0.6,0.4,1,0.9,1.4,1.5
			c0.3,0.7,0.5,1.5,0.5,2.5l0,0c0,1.8-0.6,3.1-1.8,4.1C45.5,145.3,43.8,145.8,41.6,145.8z"/>
	</g>
	<g class="st0">
		<path class="st1" d="M54.9,126.4v19.2h-2.7v-19.2C52.2,126.4,54.9,126.4,54.9,126.4z"/>
	</g>
	<g class="st0">
		<path class="st1" d="M66.1,135.2h6.6v3.3c0,1.4-0.3,2.7-0.8,3.8c-0.6,1.1-1.3,1.9-2.3,2.5s-2.2,0.9-3.5,0.9
			c-1.4,0-2.6-0.3-3.6-0.8s-1.8-1.3-2.4-2.4c-0.6-1-0.8-2.2-0.8-3.6v-5.7c0-1.4,0.3-2.7,0.8-3.8c0.6-1.1,1.3-1.9,2.3-2.5
			s2.2-0.9,3.5-0.9c1.1,0,2.1,0.2,3.1,0.7c0.9,0.5,1.7,1.1,2.3,2c0.6,0.9,1,1.9,1.3,3h-2.9c-0.2-1-0.7-1.8-1.4-2.3
			c-0.7-0.5-1.5-0.8-2.3-0.8c-1.2,0-2.2,0.4-2.9,1.2s-1.1,1.9-1.1,3.3v5.7c0,1.2,0.4,2.2,1.1,3c0.7,0.8,1.7,1.1,2.9,1.1
			c1.2,0,2.2-0.4,2.9-1.2c0.7-0.8,1.1-1.9,1.1-3.3v-0.8h-3.9C66.1,137.6,66.1,135.2,66.1,135.2z"/>
		<path class="st1" d="M85,139l5.6-12.7h2.5v19.2h-2.6v-14.4l0.1,0.8l-4.7,10.9H84l-4.7-10.6l0.1-1.1v14.4h-2.6v-19.2h2.5L85,139z"
			/>
	</g>
	<g class="st0">
		<path class="st1" d="M95.7,145.6l7.1-19.2h2.3l7.1,19.2h-2.9l-5.3-15.5l-5.3,15.5H95.7z M99,141.3v-2.6h10.1v2.6H99z"/>
	</g>
	<g class="st0">
		<path class="st2" d="M41.2,24.7h59v7.8H53.1l29,37l-31,39.2h49.6v7.7H40.4v-8.9L70,69.9L41.2,33.1V24.7z"/>
	</g>
</g>
</svg>
